<svg width="131" height="20" viewBox="0 0 131 20" fill="none" xmlns="http://www.w3.org/2000/svg">
<path d="M3.37145 0.340187H0V19.2952H13.1008V16.2967H3.37145V0.340187Z" fill="white"/>
<path d="M32.7216 11.5323C32.7329 12.1878 32.6108 12.8387 32.3626 13.4455C32.1145 14.0523 31.7455 14.6022 31.2782 15.0618C30.3395 16.001 29.1492 16.4767 27.7503 16.4767C26.3514 16.4767 25.1243 16.001 24.1856 15.0618C23.2469 14.1226 22.7714 12.9318 22.7714 11.5323V0.15345H19.4214V11.5599C19.4214 13.8111 20.1991 15.6572 21.7989 17.2041C23.3987 18.7509 25.3268 19.4829 27.7426 19.4829C30.1585 19.4829 32.0988 18.7371 33.6849 17.2041C35.2709 15.671 36.0639 13.8111 36.0639 11.5599V0.15345H32.7216V11.5323Z" fill="white"/>
<path d="M58.3192 2.13617C57.0323 0.928462 55.4723 0.340721 53.5504 0.340721H44.999V19.2957H48.3735V12.671H53.5534C55.4953 12.671 57.0568 12.0909 58.3268 10.9001C59.5969 9.70927 60.2304 8.28673 60.2304 6.50663C60.2501 5.68272 60.0892 4.8645 59.759 4.10946C59.4288 3.35442 58.9374 2.68088 58.3192 2.13617V2.13617ZM53.5504 9.66784H48.3705V3.33927H53.5504C55.3389 3.33927 56.6871 4.70044 56.6871 6.50663C56.6871 8.31282 55.3389 9.66784 53.5504 9.66784Z" fill="white"/>
<path d="M70.9139 11.299H78.5235V8.30049H70.9139V3.3024H81.3918V0.305382H67.5425V19.2589H81.536V16.2603H70.9139V11.299Z" fill="white"/>
<path d="M127.406 0.340721V13.8557L116.921 0.340721H113.759V19.2957H116.957V5.84523L127.441 19.2957H130.604V0.340721H127.406Z" fill="white"/>
<path d="M91.6688 8.30048H81.3535V11.2975H91.6688V8.30048Z" fill="white"/>
<path d="M97.7437 3.2726e-05C95.6293 0.0012148 93.5718 0.685334 91.8774 1.95059C90.1829 3.21585 88.9421 4.99462 88.3395 7.02223H91.4885C92.1291 5.58603 93.2436 4.41372 94.6453 3.70176C96.0469 2.98981 97.6506 2.78145 99.1876 3.11162C100.725 3.44179 102.101 4.29041 103.087 5.51529C104.073 6.74017 104.609 8.26686 104.603 9.83955C104.598 11.4122 104.053 12.9353 103.059 14.1536C102.065 15.3719 100.682 16.2114 99.143 16.5314C97.6039 16.8513 96.0017 16.6323 94.6047 15.9111C93.2078 15.1898 92.1011 14.0101 91.4701 12.5697H88.3257C88.836 14.3211 89.8237 15.8957 91.1783 17.1169C92.5328 18.3382 94.2006 19.1579 95.9946 19.4842C97.7886 19.8104 99.6381 19.6304 101.336 18.9641C103.033 18.2978 104.511 17.1717 105.605 15.712C106.699 14.2523 107.365 12.5167 107.528 10.6998C107.691 8.88282 107.345 7.05633 106.529 5.42502C105.712 3.79372 104.458 2.4221 102.906 1.4639C101.355 0.505706 99.5671 -0.00119044 97.7437 3.2726e-05Z" fill="white"/>
</svg>
