<svg width="14" height="13" viewBox="0 0 14 13" fill="none" xmlns="http://www.w3.org/2000/svg">
<g id="27) Icon/arrow-down">
<path id="&#240;&#159;&#142;&#168; Icon &#208;&#161;olor" fill-rule="evenodd" clip-rule="evenodd" d="M11.1038 7.23661C10.912 7.00694 10.5708 6.97553 10.3411 7.16728L7.97946 9.13515V2.70828C7.97946 2.40928 7.73679 2.16661 7.43779 2.16661C7.13879 2.16661 6.89612 2.40928 6.89612 2.70828V9.13515L4.53446 7.16728C4.30425 6.97553 3.963 7.00694 3.77179 7.23661C3.58004 7.46628 3.61091 7.80807 3.84112 7.99928L7.09112 10.7076C7.11658 10.7293 7.14692 10.7396 7.17508 10.7558C7.19729 10.7688 7.21679 10.784 7.24116 10.7937C7.30454 10.8187 7.37062 10.8333 7.43779 10.8333C7.50496 10.8333 7.57104 10.8187 7.63442 10.7937C7.65879 10.784 7.67829 10.7688 7.7005 10.7558C7.72866 10.7396 7.759 10.7293 7.78446 10.7076L11.0345 7.99928C11.2641 7.80807 11.2955 7.46628 11.1038 7.23661Z" fill="white"/>
</g>
</svg>
