<svg width="9" height="9" viewBox="0 0 9 9" fill="none" xmlns="http://www.w3.org/2000/svg">
<path fill-rule="evenodd" clip-rule="evenodd" d="M0.77121 3.76337C0.96296 3.99304 1.30421 4.02446 1.53388 3.83271L3.89554 1.86483L3.89554 8.29171C3.89554 8.59071 4.13821 8.83337 4.43721 8.83337C4.73621 8.83337 4.97888 8.59071 4.97888 8.29171L4.97888 1.86483L7.34054 3.83271C7.57075 4.02446 7.912 3.99304 8.10321 3.76337C8.29496 3.53371 8.26409 3.19192 8.03388 3.00071L4.78388 0.292374C4.75842 0.270708 4.72809 0.260416 4.69992 0.244166C4.67771 0.231166 4.65821 0.215999 4.63384 0.206249C4.57046 0.181332 4.50438 0.166708 4.43721 0.166708C4.37004 0.166708 4.30396 0.181332 4.24059 0.206249C4.21621 0.215999 4.19671 0.231166 4.1745 0.244166C4.14634 0.260416 4.116 0.270708 4.09054 0.292374L0.840544 3.00071C0.610877 3.19192 0.57946 3.53371 0.77121 3.76337Z" fill="#0A2C5B"/>
</svg>
